# xmcd
#
# Track frame offsets:
#	150
#	16618
#	31876
#	45744
#	63104
#	80559
#	95291
#	111183
#	124792
#	141972
#	155858
#	171664
#
# Disc length: 2471 seconds
#
# Revision: 1
# Processed by: cddbd v1.5.2PL0 Copyright (c) Steve Scherf et al.
# Submitted via: audiograbber 1.83.01
#
DISCID=9c09a50c
DTITLE=Arjan Boltjes - Ik voel me helemaal te gek
DYEAR=2010
DGENRE=Hollands
TTITLE0=Arjan Boltjes - Ik voel me helemaal te gek
TTITLE1=Arjan Boltjes - Was alles wat je zei
TTITLE2=Arjan Boltjes - Yo te Quiero
TTITLE3=Arjan Boltjes - Desiree
TTITLE4=Arjan Boltjes - Jij moet niet huilen
TTITLE5=Arjan Boltjes - Echte vrienden
TTITLE6=Arjan Boltjes - Liefde is
TTITLE7=Arjan Boltjes - Zomerwind
TTITLE8=Arjan Boltjes - Het is voor jou te laat
TTITLE9=Arjan Boltjes - In mijn herinnering
TTITLE10=Arjan Boltjes - Mijn buurvrouw
TTITLE11=Arjan Boltjes - Het is weer weekend
EXTD=
EXTT0=
EXTT1=
EXTT2=
EXTT3=
EXTT4=
EXTT5=
EXTT6=
EXTT7=
EXTT8=
EXTT9=
EXTT10=
EXTT11=
PLAYORDER=
